<svg version="1.1" id="fancybox_btn" xmlns="http://www.w3.org/2000/svg" xmlns:xlink="http://www.w3.org/1999/xlink" x="0px" y="0px"
   viewBox="0 0 50 50" enable-background="new 0 0 50 50" xml:space="preserve" width="25px" height="25px">
<path fill="#FF8888" d="M43.3,23.3c-0.9-8.8-8-15.9-16.8-16.8C14.6,5.3,4.7,15.2,5.8,27.1c0.9,8.8,8,15.9,16.8,16.8
  C34.5,45.1,44.5,35.2,43.3,23.3z M33.8,30.3c1,1,1,2.6,0,3.5c-1,1-2.6,1-3.5,0L25,28.5l-5.3,5.3c-1,1-2.6,1-3.5,0c-1-1-1-2.6,0-3.5
  l5.3-5.3l-5.3-5.3c-1-1-1-2.6,0-3.5c1-1,2.6-1,3.5,0l5.3,5.3l5.3-5.3c1-1,2.6-1,3.5,0c1,1,1,2.6,0,3.5L28.5,25L33.8,30.3z"/>
</svg>
