<svg version="1.1" id="GIFloading" xmlns="http://www.w3.org/2000/svg" xmlns:xlink="http://www.w3.org/1999/xlink" x="0px" y="0px"
     viewBox="0 0 300 120" style="enable-background:new 0 0 300 120;" xml:space="preserve">
<style type="text/css">
    .st0{fill:#F15A24;stroke:#E6E6E6;stroke-width:2;stroke-miterlimit:10;}
    .st1{fill:#EAD7C5;}
</style>
<rect x="100" class="st0" width="100" height="120"/>
<g>
    <g>
        <path class="st1" d="M141.3,45.7h-3l-4.8-5.3v5.3h-2.3V33.8h2.3v5.3l4.9-5.3h2.7l-5.4,5.9L141.3,45.7z"/>
        <path class="st1" d="M150.2,45.7h-7.9V33.8h7.9v1.9h-5.6v2.8h5.5v1.9h-5.5v3.3h5.6V45.7z"/>
        <path class="st1" d="M159.9,45.7H152V33.8h7.9v1.9h-5.6v2.8h5.5v1.9h-5.5v3.3h5.6V45.7z"/>
        <path class="st1" d="M170,37.8c0,0.6-0.1,1.1-0.3,1.6c-0.2,0.5-0.5,0.9-0.9,1.3c-0.4,0.4-0.8,0.6-1.3,0.8c-0.5,0.2-1,0.3-1.6,0.3
            h-2v3.9h-2.3V33.8h4.3c0.6,0,1.1,0.1,1.6,0.3c0.5,0.2,0.9,0.5,1.3,0.8c0.4,0.4,0.7,0.8,0.9,1.3C169.9,36.7,170,37.2,170,37.8z
             M167.7,37.7c0-0.3-0.1-0.6-0.2-0.9c-0.1-0.3-0.3-0.5-0.5-0.7c-0.2-0.2-0.4-0.4-0.7-0.5c-0.3-0.1-0.6-0.2-0.9-0.2H164V40h1.5
            c0.3,0,0.6-0.1,0.9-0.2c0.3-0.1,0.5-0.3,0.7-0.5c0.2-0.2,0.4-0.4,0.5-0.7S167.7,38,167.7,37.7z"/>
        <path class="st1" d="M137.9,61.4c-0.6,0.7-1.3,1.3-2.2,1.7c-0.8,0.4-1.8,0.6-2.8,0.6c-0.9,0-1.7-0.2-2.5-0.5
            c-0.8-0.3-1.4-0.8-2-1.3c-0.6-0.6-1-1.2-1.4-2c-0.3-0.7-0.5-1.6-0.5-2.4c0-0.9,0.2-1.7,0.5-2.4c0.3-0.7,0.8-1.4,1.4-2
            c0.6-0.6,1.2-1,2-1.3c0.8-0.3,1.6-0.5,2.5-0.5c1,0,2,0.2,2.8,0.6c0.8,0.4,1.6,1,2.1,1.7l-1.6,1.6c-0.4-0.5-0.8-1-1.4-1.3
            c-0.6-0.3-1.2-0.5-1.9-0.5c-0.6,0-1.1,0.1-1.6,0.3c-0.5,0.2-0.9,0.5-1.3,0.9c-0.4,0.4-0.7,0.8-0.9,1.3c-0.2,0.5-0.3,1-0.3,1.5
            c0,0.5,0.1,1,0.3,1.5c0.2,0.5,0.5,0.9,0.9,1.3c0.4,0.4,0.8,0.7,1.3,0.9c0.5,0.2,1,0.3,1.6,0.3c0.7,0,1.4-0.2,2-0.5
            c0.6-0.3,1-0.8,1.4-1.3L137.9,61.4z"/>
        <path class="st1" d="M151.1,63.6h-2.5l-1.1-2.4h-5.8l-1.1,2.4H138l5.6-11.9h1.8L151.1,63.6z M146.5,59.2l-2-4.3l-2,4.3H146.5z"/>
        <path class="st1" d="M160.3,63.6h-8.1V51.6h2.4v9.7h5.7V63.6z"/>
        <path class="st1" d="M173.6,63.6h-2.3v-8l-3.8,6.3l-3.6-6.4v8h-2.3V51.6h2.6l3.3,5.9l3.5-5.9h2.5V63.6z"/>
        <path class="st1" d="M130.8,75.5l-3.9,11.9h-2l-2.2-7.4l-2.2,7.4h-2l-3.9-11.9h2.4l2.5,7.7l2.2-7.7h1.9l2.2,7.7l2.5-7.7H130.8z"/>
        <path class="st1" d="M142.3,87.4h-2.5l-1.1-2.4h-5.8l-1.1,2.4h-2.5l5.6-11.9h1.8L142.3,87.4z M137.8,83.1l-2-4.3l-2,4.3H137.8z"/>
        <path class="st1" d="M145.8,87.4h-2.3V75.5h2.3V87.4z"/>
        <path class="st1" d="M156.2,77.5h-3.3v9.8h-2.3v-9.8h-3.3v-2.1h8.9V77.5z"/>
        <path class="st1" d="M160,87.4h-2.3V75.5h2.3V87.4z"/>
        <path class="st1" d="M172.2,87.4h-2.3l-5.4-8.4v8.4h-2.3V75.5h2.6l5.1,7.8v-7.8h2.3V87.4z"/>
        <path class="st1" d="M185.4,85.2c-0.3,0.4-0.7,0.8-1.1,1.1c-0.4,0.3-0.8,0.6-1.2,0.8c-0.4,0.2-0.9,0.3-1.3,0.4
            c-0.5,0.1-0.9,0.1-1.3,0.1c-0.9,0-1.7-0.2-2.5-0.5c-0.8-0.3-1.5-0.8-2-1.3c-0.6-0.6-1-1.2-1.4-2c-0.3-0.8-0.5-1.6-0.5-2.4
            c0-0.9,0.2-1.7,0.5-2.4c0.3-0.7,0.8-1.4,1.4-2c0.6-0.6,1.3-1,2-1.3c0.8-0.3,1.6-0.5,2.5-0.5c1,0,2,0.2,2.8,0.6
            c0.8,0.4,1.6,1,2.1,1.7l-1.6,1.6c-0.4-0.6-0.9-1-1.5-1.3c-0.6-0.3-1.2-0.4-1.9-0.4c-0.6,0-1.1,0.1-1.6,0.3s-0.9,0.5-1.3,0.9
            c-0.4,0.4-0.7,0.8-0.9,1.3c-0.2,0.5-0.3,1-0.3,1.5c0,0.6,0.1,1.1,0.3,1.6c0.2,0.5,0.5,0.9,0.9,1.3c0.4,0.4,0.8,0.7,1.3,0.9
            c0.5,0.2,1,0.3,1.6,0.3c0.5,0,1-0.1,1.5-0.3c0.5-0.2,0.9-0.5,1.3-0.8v-1.1h-2.4v-2h4.7V85.2z"/>
        <path class="st1" d="M135.8,105.3h-8.1V93.4h2.4v9.7h5.7V105.3z"/>
        <path class="st1" d="M148.6,99.3c0,0.9-0.2,1.7-0.5,2.4c-0.3,0.8-0.8,1.4-1.4,2c-0.6,0.6-1.2,1-2,1.3c-0.8,0.3-1.6,0.5-2.4,0.5
            c-0.9,0-1.7-0.2-2.4-0.5c-0.8-0.3-1.4-0.8-2-1.3c-0.6-0.6-1-1.2-1.4-2c-0.3-0.8-0.5-1.6-0.5-2.4c0-0.9,0.2-1.7,0.5-2.4
            c0.3-0.8,0.8-1.4,1.4-2s1.2-1,2-1.3c0.8-0.3,1.6-0.5,2.4-0.5c0.9,0,1.7,0.2,2.4,0.5c0.8,0.3,1.4,0.8,2,1.3c0.6,0.6,1,1.2,1.4,2
            C148.4,97.6,148.6,98.4,148.6,99.3z M146.3,99.3c0-0.5-0.1-1.1-0.3-1.5c-0.2-0.5-0.5-0.9-0.9-1.3s-0.8-0.7-1.3-0.9
            c-0.5-0.2-1-0.3-1.6-0.3c-0.6,0-1.1,0.1-1.6,0.3c-0.5,0.2-0.9,0.5-1.3,0.9s-0.6,0.8-0.9,1.3c-0.2,0.5-0.3,1-0.3,1.5
            c0,0.5,0.1,1,0.3,1.5c0.2,0.5,0.5,0.9,0.9,1.3s0.8,0.7,1.3,0.9c0.5,0.2,1,0.3,1.6,0.3c0.5,0,1.1-0.1,1.6-0.3
            c0.5-0.2,0.9-0.5,1.3-0.9s0.6-0.8,0.9-1.3C146.1,100.4,146.3,99.8,146.3,99.3z"/>
        <path class="st1" d="M161.4,105.3h-2.5l-1.1-2.4H152l-1.1,2.4h-2.5l5.6-11.9h1.8L161.4,105.3z M156.9,101l-2-4.3l-2,4.3H156.9z"/>
        <path class="st1" d="M173.2,99.3c0,0.8-0.1,1.6-0.4,2.3c-0.3,0.7-0.7,1.4-1.2,1.9c-0.5,0.5-1.1,1-1.8,1.3
            c-0.7,0.3-1.4,0.5-2.3,0.5h-5V93.3h5c0.8,0,1.6,0.2,2.3,0.5c0.7,0.3,1.3,0.7,1.8,1.3c0.5,0.5,0.9,1.2,1.2,1.9
            C173.1,97.7,173.2,98.5,173.2,99.3z M170.9,99.2c0-0.6-0.1-1.1-0.3-1.6c-0.2-0.5-0.4-0.9-0.8-1.3c-0.3-0.4-0.8-0.7-1.2-0.9
            c-0.5-0.2-1-0.3-1.7-0.3h-2v8.1h2c0.6,0,1.1-0.1,1.6-0.3c0.5-0.2,0.9-0.5,1.2-0.8c0.3-0.4,0.6-0.8,0.8-1.3
            C170.8,100.4,170.9,99.8,170.9,99.2z"/>
    </g>
    <g>
        <path class="st1" d="M148.3,71.5h-0.8l-0.4-0.8h-1.9l-0.4,0.8h-0.8l1.9-4h0.6L148.3,71.5z M146.8,70l-0.7-1.4l-0.7,1.4H146.8z"/>
        <path class="st1" d="M152,71.5h-0.8l-1.8-2.8v2.8h-0.8v-4h0.9l1.7,2.6v-2.6h0.8V71.5z"/>
        <path class="st1" d="M156.3,69.5c0,0.3,0,0.5-0.1,0.8s-0.2,0.5-0.4,0.6c-0.2,0.2-0.4,0.3-0.6,0.4c-0.2,0.1-0.5,0.2-0.8,0.2h-1.7
            v-4h1.7c0.3,0,0.5,0.1,0.8,0.2c0.2,0.1,0.4,0.2,0.6,0.4c0.2,0.2,0.3,0.4,0.4,0.6C156.2,68.9,156.3,69.2,156.3,69.5z M155.5,69.5
            c0-0.2,0-0.4-0.1-0.5s-0.1-0.3-0.3-0.4c-0.1-0.1-0.3-0.2-0.4-0.3c-0.2-0.1-0.3-0.1-0.6-0.1h-0.7v2.7h0.7c0.2,0,0.4,0,0.5-0.1
            c0.2-0.1,0.3-0.2,0.4-0.3c0.1-0.1,0.2-0.3,0.3-0.4C155.5,69.8,155.5,69.6,155.5,69.5z"/>
    </g>
</g>
<path class="st1" d="M157.5,21.5c-2.1-1-3.6-2.7-4.2-4.9c0-0.1-0.1-0.4-0.1-0.4s0,0-0.1,0c-0.1,0-0.3,0-0.5,0c0,0,0,0,0,0.1
    c-0.3,2.3-1.6,4.4-3.5,5.6c0-0.1-0.1-0.1-0.2-0.2c-1.1-1.3-1.7-3-1.7-4.9c0-0.1,0-0.2,0-0.3c0-0.1,0-0.1,0-0.1c0,0,0,0,0,0
    c0,0,0,0,0,0l-0.2,0c-0.2,0-0.2,0-0.2,0h0c0,0,0,0.1,0,0.1c0,0.1,0,0.2,0,0.3c0,0,0,0.1,0,0.2c0,2.5-1.2,4.7-3.1,6.1
    c-0.8-1.2-1.2-2.7-1.2-4.2c0-4.3,3.5-7.8,7.8-7.8c3.4,0,6.3,2.2,7.3,5.3c0,0,0,0,0,0c0,0,0.1,0,0.5-0.2c-1.1-3.3-4.2-5.6-7.8-5.6
    c-4.6,0-8.2,3.7-8.2,8.2s3.7,8.2,8.2,8.2c3.4,0,6.2-2,7.5-4.9c0,0,0,0,0,0l0.2-0.5c0,0-0.2-0.1-0.3-0.1
    C157.6,21.5,157.5,21.5,157.5,21.5z M147,18.8c0.3,1.3,0.9,2.4,1.7,3.3c-1.1,0.6-2.4,0.9-3.7,1c-0.2,0-0.4,0-0.6,0
    C145.6,22,146.6,20.5,147,18.8z M150.2,26.5c-2.5,0-4.7-1.2-6.1-3c0.2,0,0.5,0,0.9,0c3.9,0,7.1-2.7,8-6.3c0.8,2.1,2.3,3.7,4.3,4.6
    C156.1,24.6,153.4,26.5,150.2,26.5z"/>
</svg>