<svg xmlns="http://www.w3.org/2000/svg" xmlns:xlink="http://www.w3.org/1999/xlink" width="322px" height="322px" viewBox="0 0 322 322">
<g id="logo.svg">
  <g>
    <path fill="#F5F5F5" d="M161.4,311.7c61.8,0,115-36.9,138.5-89.9c-0.8-0.3-1.3-0.6-1.3-0.5c-38.4-17.7-68.2-49.9-82.9-89.6
      c-17.1,70.1-80.6,122.1-156.2,122.1c-9,0-14.6-0.3-17.9-0.7C69.3,288.8,112.6,311.7,161.4,311.7z M0,0v322h322V0H0z M33.5,241.6
      C69.6,214.2,93,171,93.3,122.3c0-0.2,0-0.5,0-0.7c0-0.3,0-0.6,0-0.8c0-2.2-0.1-4.5-0.2-6.7c-0.1-1.6-0.1-2.7-0.1-2.7h0.6
      c0,0,0.2,0,4.6,0h4.4v0c0.2,0,0.4,0,0.6,0c-0.1,1-0.1,1.1-0.1,2.6c-0.1,2.2-0.1,4.3-0.1,6.5c0,36.7,12.7,70.2,33.7,95.5
      c1.5,1.8,2.9,3.5,3.8,4.6c37.4-23.5,62.8-62.4,68.8-107.9c0.2-1.3,0.2-1.2,0.2-1.3c3.1,0,7,0,8.9,0c0.8-0.2,1.4-0.3,1.4-0.3
      s1.3,4.8,1.9,7c12,41.4,40.7,75.8,81.7,94.7c0.5,0.2,8.4,2.9,8.4,2.9l-0.3,0.7c0.3,0.1,0.6,0.2,0.9,0.3c-0.9,2.6,0,0.6-1,3.1
      C287.8,279.1,229.7,321,161.8,321C73,321,1,249.4,1,161S73,1,161.8,1c70.6,0,130.5,44.8,152.2,108.2c-6.4,2.2-8.5,3-9.2,3.2
      c0,0-0.2-0.4-0.2-0.4C284.3,52.7,227.8,10,161.4,10C77.8,10,10,77.5,10,160.8C10,190.5,18.6,218.2,33.5,241.6z M131.8,225.6
      c-15.9-18.5-27.6-40.6-33.8-65c-8.3,32.8-26.7,61.5-51.7,82.8c4,0.4,8,0.8,12.5,0.8C85.8,243.7,110.6,237.1,131.8,225.6z"/>
  </g>
</g>
</svg>