<svg version="1.1" id="loadingSVG" xmlns="http://www.w3.org/2000/svg" xmlns:xlink="http://www.w3.org/1999/xlink" x="0px" y="0px"
	 viewBox="0 0 168.3 47.9" enable-background="new 0 0 168.3 47.9" xml:space="preserve">
<g>
	<path fill="#f5f5f5" d="M19.9,35.4h-17V3.2h1.9v30.4h15.1V35.4z"/>
	<path fill="#f5f5f5" d="M28.8,35.5l-4.6-5.3V18.5l4.6-5.5h9.7l4.6,5.5v11.7l-4.6,5.3H28.8z M37.7,33.6c1.2-1.4,2.3-2.6,3.5-4V19.1
		c-1.2-1.5-2.3-2.7-3.6-4.2h-7.9c-1.2,1.5-2.3,2.7-3.6,4.2v10.4c1.2,1.4,2.3,2.6,3.5,4H37.7z"/>
	<path fill="#f5f5f5" d="M47.6,13.6h13.5l3.4,3.2v18.7h-1.9v-2.8l-3,2.7h-9.3l-3-3.1v-7.1l3-3.3h12.3v-4.2l-2.2-2.2H47.6V13.6z
		 M49.3,25.8v5.6l1.9,2.1H59l3.7-3.3v-6.6H51.3L49.3,25.8z"/>
	<path fill="#f5f5f5" d="M83.6,3.3h1.9v32.1H72.4l-3.6-4.2V16.9l3.6-4.2h11.3V3.3z M70.6,17.6v13c0.9,1,1.6,1.9,2.5,3h10.5v-19H73.2
		L70.6,17.6z"/>
	<path fill="#f5f5f5" d="M89.3,7.9L91.3,6l1.9,1.9l-1.9,1.9L89.3,7.9z M92.2,12.1v23.4h-1.9V12.1H92.2z"/>
	<path fill="#f5f5f5" d="M112.8,35.5V18.7c-0.8-1.1-1.4-2.1-2.2-3.2h-9c-0.8,1-1.5,2.2-2.2,3.2v16.8h-1.9V18.1l3.1-4.5h10.9l3.1,4.5
		v17.4H112.8z"/>
	<path fill="#f5f5f5" d="M120,42.9h13.2c0.9-0.8,1.6-1.6,2.5-2.4v-7.3l-2.1,2.2h-10.6l-3.2-3.7V16.6l3.2-3.5h10.6l2.1,2.3v-2.4h1.9
		v28.4l-3.7,3.4H120V42.9z M123.7,15c-0.8,0.8-1.3,1.5-2.1,2.3V31c0.7,0.8,1.4,1.6,2.1,2.5h9l2.9-3V18.2l-2.9-3.2H123.7z"/>
	<path fill="#f5f5f5" d="M142.5,33.4l2.1-2l2.1,2l-2.1,2.1L142.5,33.4z"/>
	<path fill="#f5f5f5" d="M151.9,33.4l2.1-2l2.1,2l-2.1,2.1L151.9,33.4z"/>
	<path fill="#f5f5f5" d="M161.3,33.4l2.1-2l2.1,2l-2.1,2.1L161.3,33.4z"/>
</g>
</svg>
