<?xml version="1.0" encoding="utf-8"?>
<!-- Generator: Adobe Illustrator 18.1.1, SVG Export Plug-In . SVG Version: 6.00 Build 0)  -->
<svg version="1.1" id="wx_pic" xmlns="http://www.w3.org/2000/svg" xmlns:xlink="http://www.w3.org/1999/xlink" x="0px"
	 y="0px" viewBox="0 0 1000 1000" enable-background="new 0 0 1000 1000" xml:space="preserve" width="300px" height="300px">
<g id="wx_pic_g">
	<g>
		<path d="M942.1,664.6C815.2,605.5,726.2,498.2,689,369c-2-6.9-6-22-6-22s-1.7,0.4-4.4,1c-5.8,0-18.1,0-27.6,0
			c0.1,0.4,0,0.1-0.5,4.2c-18.8,142.2-97.6,264.1-214,337.3c-2.8-3.6-7.1-8.9-11.8-14.5C359.6,595.9,320,491.3,320,376.6
			c0-6.8,0.1-13.6,0.4-20.4c0.2-4.8,0.2-4.9,0.4-8.2c-0.6,0-1.3,0-1.9,0v0h-13.9c-13.7,0-14.1,0-14.1,0h-2c0,0,0.2,3.5,0.4,8.4
			c0.3,6.1,0.5,12.2,0.5,18.4c0,1.7,0,3.4,0,5.2c0,1.5,0,3,0,4.5c-1.4,151.5-74.3,285.9-186.6,371C55.7,681.8,28,593.9,28,499.5
			C28,239.1,238.7,28,498.6,28C705.2,28,880.7,161.5,944,347c0,0,0.4,1.1,0.5,1.1c2.2-0.7,8.8-3,28.5-10
			C905.6,140.1,719.3,0,499.9,0C223.8,0,0,223.9,0,500s223.8,500,499.9,500c203.5,0,378.6-121.7,456.6-296.2
			c0.3,0.1,0.5,0.2,0.5,0.2l12-30c0,0-10.4-3.6-18-6.2C946.9,666.3,944,665.3,942.1,664.6z M304.9,502c19.1,76.1,55.6,145.2,105,203
			c-66.2,35.8-143,56.6-227,58c-14,0.1-26.5-1-38.8-2.3C222,694.3,279.3,604.4,304.9,502z M498.6,971c-150.1,0-283.9-70.4-370-180.1
			c10.3,1,27.8,2.1,56.4,2.1c235.2,0,432.5-162.5,485.7-381.4c45.6,124.3,138.2,225,257.7,280.1C855,856.3,690.2,971,498.6,971z
			 M928.4,691.7C928.3,691.7,928.3,691.7,928.4,691.7C928.5,691.7,928.4,691.7,928.4,691.7z"/>
	</g>
</g>
</svg>
